<mxfile host="app.diagrams.net" modified="2024-04-06T15:02:57.486Z" agent="Mozilla/5.0 (Windows NT 10.0; Win64; x64) AppleWebKit/537.36 (KHTML, like Gecko) Chrome/123.0.0.0 Safari/537.36" etag="QSKOW0HJ63jL3_vCyGq8" version="24.2.2" type="device">
  <diagram name="Página-1" id="65osaNSnWeLG4E8bxHqQ">
    <mxGraphModel dx="683" dy="368" grid="0" gridSize="10" guides="1" tooltips="1" connect="1" arrows="1" fold="1" page="1" pageScale="1" pageWidth="827" pageHeight="1169" math="0" shadow="0">
      <root>
        <mxCell id="0" />
        <mxCell id="1" parent="0" />
        <mxCell id="qHnib171WOJUjDzK5tm3-1" value="Usuário" style="shape=umlActor;verticalLabelPosition=bottom;verticalAlign=top;html=1;outlineConnect=0;" vertex="1" parent="1">
          <mxGeometry x="80" y="180" width="40" height="80" as="geometry" />
        </mxCell>
        <mxCell id="qHnib171WOJUjDzK5tm3-2" value="Cadastrar" style="ellipse;whiteSpace=wrap;html=1;" vertex="1" parent="1">
          <mxGeometry x="200" y="80" width="120" height="60" as="geometry" />
        </mxCell>
        <mxCell id="qHnib171WOJUjDzK5tm3-3" value="Realizar&lt;div&gt;Investimento&lt;/div&gt;" style="ellipse;whiteSpace=wrap;html=1;" vertex="1" parent="1">
          <mxGeometry x="200" y="150" width="120" height="60" as="geometry" />
        </mxCell>
        <mxCell id="qHnib171WOJUjDzK5tm3-4" value="Consultar&lt;div&gt;Investimento&lt;/div&gt;" style="ellipse;whiteSpace=wrap;html=1;" vertex="1" parent="1">
          <mxGeometry x="200" y="230" width="120" height="60" as="geometry" />
        </mxCell>
        <mxCell id="qHnib171WOJUjDzK5tm3-5" value="Consultar&lt;div&gt;Ativo&lt;/div&gt;" style="ellipse;whiteSpace=wrap;html=1;" vertex="1" parent="1">
          <mxGeometry x="200" y="300" width="120" height="60" as="geometry" />
        </mxCell>
        <mxCell id="qHnib171WOJUjDzK5tm3-7" value="brapi&lt;div&gt;API&lt;/div&gt;" style="shape=umlActor;verticalLabelPosition=bottom;verticalAlign=top;html=1;outlineConnect=0;" vertex="1" parent="1">
          <mxGeometry x="470" y="290" width="40" height="80" as="geometry" />
        </mxCell>
        <mxCell id="qHnib171WOJUjDzK5tm3-8" value="" style="endArrow=classic;html=1;rounded=0;entryX=1;entryY=0.5;entryDx=0;entryDy=0;" edge="1" parent="1" source="qHnib171WOJUjDzK5tm3-7" target="qHnib171WOJUjDzK5tm3-5">
          <mxGeometry width="50" height="50" relative="1" as="geometry">
            <mxPoint x="230" y="290" as="sourcePoint" />
            <mxPoint x="280" y="240" as="targetPoint" />
          </mxGeometry>
        </mxCell>
        <mxCell id="qHnib171WOJUjDzK5tm3-9" value="" style="endArrow=classic;html=1;rounded=0;entryX=0;entryY=0.5;entryDx=0;entryDy=0;" edge="1" parent="1" source="qHnib171WOJUjDzK5tm3-1" target="qHnib171WOJUjDzK5tm3-5">
          <mxGeometry width="50" height="50" relative="1" as="geometry">
            <mxPoint x="200" y="300" as="sourcePoint" />
            <mxPoint x="120" y="300" as="targetPoint" />
          </mxGeometry>
        </mxCell>
        <mxCell id="qHnib171WOJUjDzK5tm3-10" value="" style="endArrow=classic;html=1;rounded=0;entryX=-0.023;entryY=0.477;entryDx=0;entryDy=0;entryPerimeter=0;" edge="1" parent="1" source="qHnib171WOJUjDzK5tm3-1" target="qHnib171WOJUjDzK5tm3-4">
          <mxGeometry width="50" height="50" relative="1" as="geometry">
            <mxPoint x="420" y="350" as="sourcePoint" />
            <mxPoint x="340" y="350" as="targetPoint" />
          </mxGeometry>
        </mxCell>
        <mxCell id="qHnib171WOJUjDzK5tm3-11" value="" style="endArrow=classic;html=1;rounded=0;entryX=0;entryY=0.5;entryDx=0;entryDy=0;" edge="1" parent="1" source="qHnib171WOJUjDzK5tm3-1" target="qHnib171WOJUjDzK5tm3-3">
          <mxGeometry width="50" height="50" relative="1" as="geometry">
            <mxPoint x="130" y="238" as="sourcePoint" />
            <mxPoint x="207" y="269" as="targetPoint" />
          </mxGeometry>
        </mxCell>
        <mxCell id="qHnib171WOJUjDzK5tm3-12" value="" style="endArrow=classic;html=1;rounded=0;entryX=0;entryY=0.5;entryDx=0;entryDy=0;" edge="1" parent="1" source="qHnib171WOJUjDzK5tm3-1" target="qHnib171WOJUjDzK5tm3-2">
          <mxGeometry width="50" height="50" relative="1" as="geometry">
            <mxPoint x="120" y="150" as="sourcePoint" />
            <mxPoint x="200" y="118" as="targetPoint" />
          </mxGeometry>
        </mxCell>
        <mxCell id="qHnib171WOJUjDzK5tm3-13" value="&amp;lt;&amp;lt; extends&amp;gt;&amp;gt;" style="endArrow=open;endSize=12;dashed=1;html=1;rounded=0;exitX=1;exitY=0.5;exitDx=0;exitDy=0;entryX=0;entryY=0.5;entryDx=0;entryDy=0;" edge="1" parent="1" source="qHnib171WOJUjDzK5tm3-2" target="qHnib171WOJUjDzK5tm3-14">
          <mxGeometry x="-0.0909" y="10" width="160" relative="1" as="geometry">
            <mxPoint x="290" y="170" as="sourcePoint" />
            <mxPoint x="450" y="170" as="targetPoint" />
            <mxPoint as="offset" />
          </mxGeometry>
        </mxCell>
        <mxCell id="qHnib171WOJUjDzK5tm3-14" value="Logar" style="ellipse;whiteSpace=wrap;html=1;" vertex="1" parent="1">
          <mxGeometry x="430" y="80" width="120" height="60" as="geometry" />
        </mxCell>
      </root>
    </mxGraphModel>
  </diagram>
</mxfile>
